<svg xmlns="http://www.w3.org/2000/svg" viewBox="0 0 75 125" x="0px" y="0px" version="1.1">
  <defs>
      <filter id="glow" x="-120%" y="-120%" width="400%" height="400%">
      <feOffset result="offOut" in="SourceGraphic" dx="0" dy="0"></feOffset>
      <feGaussianBlur result="blurOut" in="offOut" stdDeviation="6"></feGaussianBlur>
      <feBlend in="SourceGraphic" in2="blurOut" mode="overlay"></feBlend>
      </filter>
  </defs>
  <g transform="translate(0 -952.362)">
    <path filter="url(#glow)" overflow="visible" display="inline" visibility="visible" style="direction: ltr; baseline-shift: baseline; enable-background: accumulate; block-progression: tb;" fill="#26e9ff" fill-rule="evenodd" stroke="none" d="m 50 979.362 c -24.1419 0 -43.7793 19.5059 -44 43.5937 c -8e-005 0.01 -8e-005 0.021 0 0.031 c 0.0268 1.6439 0.76877 2.2565 2.25 2.375 l 83.375 0 c 1.79247 -0.01 2.27825 -0.826 2.375 -2.4062 c 7.9e-005 -0.01 7.9e-005 -0.021 0 -0.031 c -0.237531 -24.0734 -19.8782 -43.5625 -44 -43.5625 Z m 0 4 c 21.4368 0 38.9296 16.8165 39.9688 38 l -79.9063 0 c 1.03914 -21.1835 18.4905 -38 39.9375 -38 Z" marker="none" />
  </g>
</svg>