<svg xmlns="http://www.w3.org/2000/svg" enable-background="new 0 0 100 100" viewBox="0 0 100 75" x="0px" y="0px" fill="#26e9ff" xmlns:xml="http://www.w3.org/XML/1998/namespace" xml:space="preserve" version="1.1">
  <defs>
      <filter id="glow" x="-120%" y="-120%" width="400%" height="400%">
      <feOffset result="offOut" in="SourceGraphic" dx="0" dy="0"></feOffset>
      <feGaussianBlur result="blurOut" in="offOut" stdDeviation="4"></feGaussianBlur>
      <feBlend in="SourceGraphic" in2="blurOut" mode="overlay"></feBlend>
      </filter>
  </defs>
  <path filter="url(#glow)" d="M 82.77 37.771 c -2.76 0 -4.15 -1.667 -5.268 -3.007 c -1.056 -1.267 -1.667 -1.928 -2.962 -1.928 c -1.293 0 -1.904 0.661 -2.96 1.928 c -1.116 1.339 -2.506 3.007 -5.265 3.007 c -2.76 0 -4.149 -1.667 -5.267 -3.007 c -1.056 -1.267 -1.667 -1.928 -2.961 -1.928 c -1.293 0 -1.904 0.661 -2.96 1.928 c -1.116 1.339 -2.506 3.007 -5.264 3.007 c -2.758 0 -4.147 -1.667 -5.263 -3.007 c -1.055 -1.267 -1.666 -1.928 -2.959 -1.928 s -1.904 0.661 -2.959 1.928 c -1.116 1.339 -2.505 3.007 -5.263 3.007 c -2.758 0 -4.147 -1.667 -5.263 -3.007 c -1.055 -1.267 -1.666 -1.927 -2.958 -1.927 c -1.293 0 -1.904 0.661 -2.959 1.928 c -1.116 1.339 -2.505 3.007 -5.264 3.007 c -2.759 0 -4.148 -1.667 -5.265 -3.007 c -1.056 -1.267 -1.667 -1.928 -2.96 -1.928 c -0.829 0 -1.5 -0.671 -1.5 -1.5 s 0.671 -1.5 1.5 -1.5 c 2.759 0 4.148 1.667 5.265 3.007 c 1.056 1.267 1.667 1.928 2.96 1.928 c 1.293 0 1.904 -0.661 2.959 -1.927 c 1.116 -1.34 2.505 -3.007 5.264 -3.007 c 2.758 0 4.147 1.667 5.263 3.007 c 1.055 1.267 1.666 1.927 2.958 1.927 s 1.903 -0.661 2.958 -1.927 c 1.116 -1.34 2.505 -3.007 5.264 -3.007 s 4.147 1.667 5.264 3.007 c 1.055 1.267 1.666 1.927 2.958 1.927 c 1.293 0 1.904 -0.661 2.959 -1.927 c 1.116 -1.34 2.506 -3.007 5.265 -3.007 s 4.148 1.667 5.266 3.006 c 1.056 1.267 1.667 1.928 2.962 1.928 c 1.293 0 1.904 -0.661 2.96 -1.928 c 1.116 -1.339 2.506 -3.007 5.265 -3.007 c 2.76 0 4.149 1.667 5.267 3.006 c 1.056 1.267 1.668 1.928 2.963 1.928 s 1.906 -0.661 2.963 -1.928 c 1.117 -1.339 2.508 -3.006 5.268 -3.006 c 0.828 0 1.5 0.671 1.5 1.5 s -0.672 1.5 -1.5 1.5 c -1.295 0 -1.906 0.661 -2.963 1.928 C 86.92 36.104 85.529 37.771 82.77 37.771 Z" />
  <path filter="url(#glow)" d="M 82.77 53.218 c -2.76 0 -4.15 -1.667 -5.268 -3.007 c -1.056 -1.267 -1.667 -1.928 -2.962 -1.928 c -1.293 0 -1.904 0.661 -2.96 1.928 c -1.116 1.339 -2.506 3.007 -5.265 3.007 c -2.76 0 -4.149 -1.668 -5.267 -3.007 c -1.056 -1.267 -1.667 -1.928 -2.961 -1.928 c -1.293 0 -1.904 0.661 -2.96 1.928 c -1.116 1.339 -2.506 3.007 -5.264 3.007 c -2.758 0 -4.147 -1.668 -5.263 -3.007 c -1.055 -1.267 -1.666 -1.928 -2.959 -1.928 s -1.904 0.661 -2.959 1.928 c -1.116 1.339 -2.505 3.007 -5.263 3.007 c -2.758 0 -4.147 -1.668 -5.263 -3.008 c -1.055 -1.267 -1.666 -1.927 -2.958 -1.927 c -1.293 0 -1.904 0.661 -2.959 1.928 c -1.116 1.339 -2.505 3.007 -5.264 3.007 c -2.759 0 -4.148 -1.668 -5.265 -3.007 c -1.056 -1.267 -1.667 -1.928 -2.96 -1.928 c -0.829 0 -1.5 -0.671 -1.5 -1.5 s 0.671 -1.5 1.5 -1.5 c 2.759 0 4.148 1.667 5.265 3.007 c 1.056 1.267 1.667 1.928 2.96 1.928 c 1.293 0 1.904 -0.661 2.959 -1.927 c 1.116 -1.34 2.505 -3.007 5.264 -3.007 c 2.758 0 4.147 1.667 5.263 3.007 c 1.055 1.267 1.666 1.927 2.958 1.927 s 1.903 -0.661 2.958 -1.927 c 1.116 -1.34 2.505 -3.007 5.264 -3.007 s 4.147 1.667 5.264 3.007 c 1.055 1.267 1.666 1.927 2.958 1.927 c 1.293 0 1.904 -0.661 2.959 -1.927 c 1.116 -1.34 2.506 -3.007 5.265 -3.007 s 4.148 1.667 5.266 3.006 c 1.056 1.267 1.667 1.928 2.962 1.928 c 1.293 0 1.904 -0.661 2.96 -1.928 c 1.116 -1.339 2.506 -3.007 5.265 -3.007 c 2.76 0 4.149 1.667 5.267 3.006 c 1.056 1.267 1.668 1.928 2.963 1.928 s 1.906 -0.661 2.963 -1.928 C 86.85 46.95 88.24 45.283 91 45.283 c 0.828 0 1.5 0.671 1.5 1.5 s -0.672 1.5 -1.5 1.5 c -1.295 0 -1.906 0.661 -2.963 1.928 C 86.92 51.551 85.529 53.218 82.77 53.218 Z" />
  <path filter="url(#glow)" d="M 82.77 68.664 c -2.76 0 -4.15 -1.668 -5.268 -3.008 c -1.056 -1.267 -1.668 -1.928 -2.962 -1.928 c -1.293 0 -1.904 0.661 -2.96 1.928 c -1.116 1.34 -2.506 3.008 -5.265 3.008 c -2.76 0 -4.149 -1.668 -5.267 -3.008 c -1.056 -1.267 -1.667 -1.928 -2.961 -1.928 c -1.293 0 -1.904 0.661 -2.96 1.928 c -1.116 1.34 -2.506 3.008 -5.264 3.008 s -4.147 -1.668 -5.263 -3.008 c -1.055 -1.267 -1.666 -1.928 -2.959 -1.928 s -1.904 0.661 -2.959 1.928 c -1.116 1.34 -2.505 3.008 -5.263 3.008 s -4.147 -1.668 -5.263 -3.008 c -1.055 -1.267 -1.666 -1.928 -2.958 -1.928 c -1.293 0 -1.904 0.661 -2.959 1.928 c -1.116 1.34 -2.505 3.008 -5.264 3.008 c -2.759 0 -4.148 -1.668 -5.265 -3.008 c -1.056 -1.267 -1.667 -1.928 -2.96 -1.928 c -0.829 0 -1.5 -0.672 -1.5 -1.5 s 0.671 -1.5 1.5 -1.5 c 2.759 0 4.148 1.668 5.265 3.008 c 1.056 1.267 1.667 1.928 2.96 1.928 c 1.292 0 1.903 -0.661 2.959 -1.928 c 1.116 -1.34 2.505 -3.008 5.264 -3.008 c 2.758 0 4.147 1.668 5.263 3.008 c 1.055 1.267 1.666 1.928 2.958 1.928 s 1.903 -0.661 2.958 -1.928 c 1.116 -1.34 2.505 -3.008 5.264 -3.008 s 4.147 1.668 5.264 3.008 c 1.055 1.267 1.666 1.928 2.958 1.928 c 1.293 0 1.904 -0.661 2.959 -1.928 c 1.116 -1.34 2.506 -3.008 5.265 -3.008 s 4.148 1.667 5.266 3.007 c 1.056 1.268 1.667 1.929 2.962 1.929 c 1.293 0 1.904 -0.661 2.96 -1.928 c 1.116 -1.34 2.506 -3.008 5.265 -3.008 c 2.76 0 4.149 1.667 5.267 3.007 c 1.057 1.268 1.668 1.929 2.963 1.929 s 1.906 -0.661 2.963 -1.929 c 1.117 -1.34 2.508 -3.007 5.268 -3.007 c 0.828 0 1.5 0.672 1.5 1.5 s -0.672 1.5 -1.5 1.5 c -1.295 0 -1.906 0.661 -2.963 1.929 C 86.92 66.997 85.529 68.664 82.77 68.664 Z" />
</svg>