<svg x="20" y="20" viewBox="-10 -10 50 50" fill="#26e9ff" xmlns="http://www.w3.org/2000/svg">
    <defs>
        <filter id="glow" x="-50%" y="-50%" width="200%" height="200%">
        <feOffset result="offOut" in="SourceGraphic" dx="0" dy="0"></feOffset>
        <feGaussianBlur result="blurOut" in="offOut" stdDeviation="4"></feGaussianBlur>
        <feBlend in="SourceGraphic" in2="blurOut" mode="overlay"></feBlend>
        </filter>
    </defs>
<g>
	<g filter="url(#glow)">
		<path d="M8.619,11.385c0,0.29,0.235,0.524,0.524,0.524H32.07c0.289,0,0.524-0.234,0.524-0.524v-0.42
			c0-0.29-0.235-0.524-0.524-0.524H9.144c-0.289,0-0.524,0.234-0.524,0.524V11.385z"/>
	</g>
	<g filter="url(#cardGlow)">
		<path d="M5.646,8.461c0,0.29,0.235,0.524,0.524,0.524h22.926c0.289,0,0.524-0.234,0.524-0.524v-0.42
			c0-0.29-0.235-0.524-0.524-0.524H6.171c-0.289,0-0.524,0.234-0.524,0.524V8.461z"/>
	</g>
	<g filter="url(#cardGlow)">
		<path d="M2.526,5.536c0,0.29,0.235,0.524,0.524,0.524h22.927c0.289,0,0.524-0.234,0.524-0.524v-0.42
			c0-0.29-0.235-0.524-0.524-0.524H3.051c-0.289,0-0.524,0.234-0.524,0.524V5.536z"/>
	</g>
</g>
</svg>