<svg xmlns="http://www.w3.org/2000/svg" x="0px" y="0px"
	 width="50px" height="16.501px" viewBox="0 0 100 100" fill="#26e9ff" enable-background="new 0 0 34.595 16.501">
    <defs>
        <filter id="cardGlow" primitiveUnits="userSpaceOnUse" height="180%" y="-40%">
            <feGaussianBlur stdDeviation="3" in="SourceGraphic"/>
            <feColorMatrix type="matrix" values="0 0 0 0 .12 
                                                0 0 0 0 .23 
                                                0 0 0 0 .75 
                                                0 0 0 1 0"/>
        <feComposite operator="over" in="SourceGraphic"/>
        </filter>     
    </defs>
<g>
	<g filter="url(#cardGlow)">
		<path d="M8.619,11.385c0,0.29,0.235,0.524,0.524,0.524H32.07c0.289,0,0.524-0.234,0.524-0.524v-0.42
			c0-0.29-0.235-0.524-0.524-0.524H9.144c-0.289,0-0.524,0.234-0.524,0.524V11.385z"/>
	</g>
	<g filter="url(#cardGlow)">
		<path d="M5.646,8.461c0,0.29,0.235,0.524,0.524,0.524h22.926c0.289,0,0.524-0.234,0.524-0.524v-0.42
			c0-0.29-0.235-0.524-0.524-0.524H6.171c-0.289,0-0.524,0.234-0.524,0.524V8.461z"/>
	</g>
	<g filter="url(#cardGlow)">
		<path d="M2.526,5.536c0,0.29,0.235,0.524,0.524,0.524h22.927c0.289,0,0.524-0.234,0.524-0.524v-0.42
			c0-0.29-0.235-0.524-0.524-0.524H3.051c-0.289,0-0.524,0.234-0.524,0.524V5.536z"/>
	</g>
</g>
</svg>