<?xml version="1.0" encoding="utf-8"?>
<!-- Generator: Adobe Illustrator 16.0.0, SVG Export Plug-In . SVG Version: 6.00 Build 0)  -->
<!DOCTYPE svg PUBLIC "-//W3C//DTD SVG 1.1//EN" "http://www.w3.org/Graphics/SVG/1.1/DTD/svg11.dtd">
<svg version="1.1" id="Layer_1" xmlns="http://www.w3.org/2000/svg" xmlns:xlink="http://www.w3.org/1999/xlink" x="0px" y="0px"
	 width="345px" height="847px" viewBox="0 0 345 847" enable-background="new 0 0 345 847" xml:space="preserve">
<g>
	<g>
		<path fill="#6AB6FF" d="M67,519.074c0,4.93-3.996,8.926-8.926,8.926H26.926c-4.93,0-8.926-3.996-8.926-8.926v-0.148
			c0-4.93,3.996-8.926,8.926-8.926h31.148c4.93,0,8.926,3.996,8.926,8.926V519.074z"/>
		<path fill="#FF7F95" d="M281,519.207c0,4.856-3.937,8.793-8.793,8.793h-74.414c-4.856,0-8.793-3.937-8.793-8.793v-0.414
			c0-4.856,3.937-8.793,8.793-8.793h74.414c4.856,0,8.793,3.937,8.793,8.793V519.207z"/>
		<path fill="#96FFD6" d="M179,519.068c0,4.933-3.999,8.932-8.932,8.932h-41.137c-4.933,0-8.932-3.999-8.932-8.932v-0.137
			c0-4.933,3.999-8.932,8.932-8.932h41.137c4.933,0,8.932,3.999,8.932,8.932V519.068z"/>
		<path fill="#96FFD6" d="M110,519.067c0,4.934-3.999,8.933-8.932,8.933H85.932c-4.933,0-8.932-3.999-8.932-8.933v-0.135
			c0-4.934,3.999-8.933,8.932-8.933h15.137c4.933,0,8.932,3.999,8.932,8.933V519.067z"/>
	</g>
	<g>
		<path fill="#96FFD6" d="M278,575.068c0,4.933-3.999,8.932-8.932,8.932H128.932c-4.933,0-8.932-3.999-8.932-8.932v-0.137
			c0-4.933,3.999-8.932,8.932-8.932h140.137c4.933,0,8.932,3.999,8.932,8.932V575.068z"/>
		<path fill="#6AB6FF" d="M110,575.067c0,4.934-3.999,8.933-8.932,8.933H85.932c-4.933,0-8.932-3.999-8.932-8.933v-0.135
			c0-4.934,3.999-8.933,8.932-8.933h15.137c4.933,0,8.932,3.999,8.932,8.933V575.067z"/>
		<path fill="#3585FF" d="M67,575.067c0,4.934-3.999,8.933-8.932,8.933H16.932C11.999,584,8,580.001,8,575.067v-0.135
			c0-4.934,3.999-8.933,8.932-8.933h41.137c4.933,0,8.932,3.999,8.932,8.933V575.067z"/>
	</g>
	<g>
		<path fill="#FF7F95" d="M219,603.068c0,4.933-3.999,8.932-8.933,8.932H69.933c-4.934,0-8.933-3.999-8.933-8.932v-0.137
			c0-4.933,3.999-8.932,8.933-8.932h140.135c4.934,0,8.933,3.999,8.933,8.932V603.068z"/>
		<path fill="#FF7F95" d="M51,603.067c0,4.934-3.999,8.933-8.933,8.933H26.933c-4.934,0-8.933-3.999-8.933-8.933v-0.135
			c0-4.934,3.999-8.933,8.933-8.933h15.135c4.934,0,8.933,3.999,8.933,8.933V603.067z"/>
		<path fill="#FABD5B" d="M288,603.067c0,4.934-3.999,8.933-8.932,8.933h-41.137c-4.933,0-8.932-3.999-8.932-8.933v-0.135
			c0-4.934,3.999-8.933,8.932-8.933h41.137c4.933,0,8.932,3.999,8.932,8.933V603.067z"/>
	</g>
	<g>
		<path fill="#8E7CFF" d="M294,687.067c0,4.934-3.999,8.933-8.933,8.933H144.933c-4.934,0-8.933-3.999-8.933-8.933v-0.135
			c0-4.934,3.999-8.933,8.933-8.933h140.135c4.934,0,8.933,3.999,8.933,8.933V687.067z"/>
		<path fill="#8E7CFF" d="M126,687.075c0,4.929-3.996,8.925-8.925,8.925h-31.15c-4.929,0-8.925-3.996-8.925-8.925v-0.15
			c0-4.929,3.996-8.925,8.925-8.925h31.15c4.929,0,8.925,3.996,8.925,8.925V687.075z"/>
		<path fill="#96FFD6" d="M67,687.067c0,4.934-3.999,8.933-8.932,8.933H16.932C11.999,696,8,692.001,8,687.067v-0.135
			c0-4.934,3.999-8.933,8.932-8.933h41.137c4.933,0,8.932,3.999,8.932,8.933V687.067z"/>
	</g>
	<g>
		<path fill="#96FFD6" d="M179,435.207c0,4.856-3.937,8.793-8.793,8.793H95.793c-4.856,0-8.793-3.937-8.793-8.793v-0.414
			c0-4.856,3.937-8.793,8.793-8.793h74.414c4.856,0,8.793,3.937,8.793,8.793V435.207z"/>
		<path fill="#96FFD6" d="M77,435.075c0,4.929-3.996,8.925-8.926,8.925H36.926c-4.93,0-8.926-3.996-8.926-8.925v-0.15
			c0-4.929,3.996-8.925,8.926-8.925h31.148c4.93,0,8.926,3.996,8.926,8.925V435.075z"/>
		<path fill="#3585FF" d="M238,435.074c0,4.93-3.996,8.926-8.925,8.926h-31.15c-4.929,0-8.925-3.996-8.925-8.926v-0.148
			c0-4.93,3.996-8.926,8.925-8.926h31.15c4.929,0,8.925,3.996,8.925,8.926V435.074z"/>
	</g>
	<g>
		<path fill="#FABD5B" d="M51,749.068c0,4.933-3.999,8.932-8.932,8.932H26.932c-4.933,0-8.932-3.999-8.932-8.932v-0.137
			c0-4.933,3.999-8.932,8.932-8.932h15.137c4.933,0,8.932,3.999,8.932,8.932V749.068z"/>
		<path fill="#8E7CFF" d="M153,749.207c0,4.856-3.937,8.793-8.793,8.793H69.793c-4.856,0-8.793-3.937-8.793-8.793v-0.414
			c0-4.856,3.937-8.793,8.793-8.793h74.414c4.856,0,8.793,3.937,8.793,8.793V749.207z"/>
		<path fill="#96FFD6" d="M321,749.067c0,4.934-3.999,8.933-8.933,8.933H171.933c-4.934,0-8.933-3.999-8.933-8.933v-0.135
			c0-4.934,3.999-8.933,8.933-8.933h140.135c4.934,0,8.933,3.999,8.933,8.933V749.067z"/>
	</g>
	<g>
		<path fill="#8E7CFF" d="M294,547.068c0,4.933-3.999,8.932-8.932,8.932h-41.137c-4.933,0-8.932-3.999-8.932-8.932v-0.137
			c0-4.933,3.999-8.932,8.932-8.932h41.137c4.933,0,8.932,3.999,8.932,8.932V547.068z"/>
		<path fill="#FABD5B" d="M225,547.068c0,4.933-3.999,8.932-8.932,8.932H75.932c-4.933,0-8.932-3.999-8.932-8.932v-0.137
			c0-4.933,3.999-8.932,8.932-8.932h140.137c4.933,0,8.932,3.999,8.932,8.932V547.068z"/>
		<path fill="#FABD5B" d="M57,547.075c0,4.929-3.996,8.925-8.925,8.925h-31.15C11.996,556,8,552.004,8,547.075v-0.15
			c0-4.929,3.996-8.925,8.925-8.925h31.15c4.929,0,8.925,3.996,8.925,8.925V547.075z"/>
	</g>
	<g>
		<path fill="#FF7F95" d="M288,659.068c0,4.933-3.999,8.932-8.932,8.932h-41.137c-4.933,0-8.932-3.999-8.932-8.932v-0.137
			c0-4.933,3.999-8.932,8.932-8.932h41.137c4.933,0,8.932,3.999,8.932,8.932V659.068z"/>
		<path fill="#6AB6FF" d="M219,659.067c0,4.934-3.999,8.933-8.932,8.933H69.932c-4.933,0-8.932-3.999-8.932-8.933v-0.135
			c0-4.934,3.999-8.933,8.932-8.933h140.137c4.933,0,8.932,3.999,8.932,8.933V659.067z"/>
		<path fill="#96FFD6" d="M51,659.068c0,4.933-3.999,8.932-8.932,8.932H26.932c-4.933,0-8.932-3.999-8.932-8.932v-0.137
			c0-4.933,3.999-8.932,8.932-8.932h15.137c4.933,0,8.932,3.999,8.932,8.932V659.068z"/>
	</g>
	<g>
		<path fill="#FF7F95" d="M337,777.206c0,4.856-3.938,8.794-8.794,8.794h-74.412c-4.856,0-8.794-3.938-8.794-8.794v-0.412
			c0-4.856,3.938-8.794,8.794-8.794h74.412c4.856,0,8.794,3.938,8.794,8.794V777.206z"/>
		<path fill="#3585FF" d="M235,777.068c0,4.933-3.999,8.932-8.932,8.932H85.932c-4.933,0-8.932-3.999-8.932-8.932v-0.137
			c0-4.933,3.999-8.932,8.932-8.932h140.137c4.933,0,8.932,3.999,8.932,8.932V777.068z"/>
		<path fill="#8E7CFF" d="M67,777.075c0,4.929-3.996,8.925-8.926,8.925H26.926c-4.93,0-8.926-3.996-8.926-8.925v-0.15
			c0-4.929,3.996-8.925,8.926-8.925h31.148c4.93,0,8.926,3.996,8.926,8.925V777.075z"/>
	</g>
	<g>
		<path fill="#3585FF" d="M232,631.068c0,4.933-3.999,8.932-8.932,8.932h-15.137c-4.933,0-8.932-3.999-8.932-8.932v-0.137
			c0-4.933,3.999-8.932,8.932-8.932h15.137c4.933,0,8.932,3.999,8.932,8.932V631.068z"/>
		<path fill="#FABD5B" d="M189,631.207c0,4.856-3.937,8.793-8.793,8.793h-74.414c-4.856,0-8.793-3.937-8.793-8.793v-0.414
			c0-4.856,3.937-8.793,8.793-8.793h74.414c4.856,0,8.793,3.937,8.793,8.793V631.207z"/>
		<path fill="#FF7F95" d="M87,631.067c0,4.934-3.999,8.933-8.933,8.933H36.933c-4.934,0-8.933-3.999-8.933-8.933v-0.135
			c0-4.934,3.999-8.933,8.933-8.933h41.135c4.934,0,8.933,3.999,8.933,8.933V631.067z"/>
		<path fill="#6AB6FF" d="M334,631.207c0,4.856-3.937,8.793-8.793,8.793h-74.414c-4.856,0-8.793-3.937-8.793-8.793v-0.414
			c0-4.856,3.937-8.793,8.793-8.793h74.414c4.856,0,8.793,3.937,8.793,8.793V631.207z"/>
	</g>
	<g>
		<path fill="#8E7CFF" d="M51,463.067c0,4.934-3.999,8.933-8.932,8.933H26.932c-4.933,0-8.932-3.999-8.932-8.933v-0.135
			c0-4.934,3.999-8.933,8.932-8.933h15.137c4.933,0,8.932,3.999,8.932,8.933V463.067z"/>
		<path fill="#FABD5B" d="M331,463.068c0,4.933-3.999,8.932-8.932,8.932h-15.137c-4.933,0-8.932-3.999-8.932-8.932v-0.137
			c0-4.933,3.999-8.932,8.932-8.932h15.137c4.933,0,8.932,3.999,8.932,8.932V463.068z"/>
		<path fill="#FABD5B" d="M288,463.068c0,4.933-3.999,8.932-8.932,8.932h-41.137c-4.933,0-8.932-3.999-8.932-8.932v-0.137
			c0-4.933,3.999-8.932,8.932-8.932h41.137c4.933,0,8.932,3.999,8.932,8.932V463.068z"/>
		<path fill="#8E7CFF" d="M219,463.068c0,4.933-3.999,8.932-8.932,8.932H69.932c-4.933,0-8.932-3.999-8.932-8.932v-0.137
			c0-4.933,3.999-8.932,8.932-8.932h140.137c4.933,0,8.932,3.999,8.932,8.932V463.068z"/>
	</g>
	<g>
		<path fill="#FF7F95" d="M176,491.068c0,4.933-3.999,8.932-8.932,8.932H26.932c-4.933,0-8.932-3.999-8.932-8.932v-0.137
			c0-4.933,3.999-8.932,8.932-8.932h140.137c4.933,0,8.932,3.999,8.932,8.932V491.068z"/>
		<path fill="#3585FF" d="M337,491.207c0,4.856-3.937,8.793-8.793,8.793h-74.414c-4.856,0-8.793-3.937-8.793-8.793v-0.414
			c0-4.856,3.937-8.793,8.793-8.793h74.414c4.856,0,8.793,3.937,8.793,8.793V491.207z"/>
		<path fill="#FF7F95" d="M235,491.075c0,4.929-3.996,8.925-8.925,8.925h-31.15c-4.929,0-8.925-3.996-8.925-8.925v-0.15
			c0-4.929,3.996-8.925,8.925-8.925h31.15c4.929,0,8.925,3.996,8.925,8.925V491.075z"/>
	</g>
	<g>
		<path fill="#8E7CFF" d="M281,805.068c0,4.933-3.999,8.932-8.932,8.932h-15.137c-4.933,0-8.932-3.999-8.932-8.932v-0.137
			c0-4.933,3.999-8.932,8.932-8.932h15.137c4.933,0,8.932,3.999,8.932,8.932V805.068z"/>
		<path fill="#8E7CFF" d="M238,805.068c0,4.933-3.999,8.932-8.933,8.932h-41.135c-4.934,0-8.933-3.999-8.933-8.932v-0.137
			c0-4.933,3.999-8.932,8.933-8.932h41.135c4.934,0,8.933,3.999,8.933,8.932V805.068z"/>
		<path fill="#FABD5B" d="M169,805.075c0,4.929-3.996,8.925-8.926,8.925h-31.148c-4.93,0-8.926-3.996-8.926-8.925v-0.15
			c0-4.929,3.996-8.925,8.926-8.925h31.148c4.93,0,8.926,3.996,8.926,8.925V805.075z"/>
		<path fill="#FABD5B" d="M110,805.207c0,4.856-3.937,8.793-8.793,8.793H26.793c-4.856,0-8.793-3.937-8.793-8.793v-0.414
			c0-4.856,3.937-8.793,8.793-8.793h74.414c4.856,0,8.793,3.937,8.793,8.793V805.207z"/>
	</g>
	<g>
		<path fill="#FF7F95" d="M57,833.075c0,4.929-3.996,8.925-8.925,8.925h-31.15C11.996,842,8,838.004,8,833.075v-0.15
			c0-4.929,3.996-8.925,8.925-8.925h31.15c4.929,0,8.925,3.996,8.925,8.925V833.075z"/>
		<path fill="#8E7CFF" d="M159,833.206c0,4.856-3.937,8.794-8.793,8.794H75.793c-4.856,0-8.793-3.938-8.793-8.794v-0.412
			c0-4.856,3.937-8.794,8.793-8.794h74.414c4.856,0,8.793,3.938,8.793,8.794V833.206z"/>
		<path fill="#96FFD6" d="M218,833.074c0,4.93-3.996,8.926-8.925,8.926h-31.15c-4.929,0-8.925-3.996-8.925-8.926v-0.148
			c0-4.93,3.996-8.926,8.925-8.926h31.15c4.929,0,8.925,3.996,8.925,8.926V833.074z"/>
		<path fill="#96FFD6" d="M320,833.207c0,4.856-3.937,8.793-8.793,8.793h-74.414c-4.856,0-8.793-3.937-8.793-8.793v-0.414
			c0-4.856,3.937-8.793,8.793-8.793h74.414c4.856,0,8.793,3.937,8.793,8.793V833.207z"/>
	</g>
	<g>
		<path fill="#FF7F95" d="M278,715.068c0,4.933-3.999,8.932-8.932,8.932h-15.137c-4.933,0-8.932-3.999-8.932-8.932v-0.137
			c0-4.933,3.999-8.932,8.932-8.932h15.137c4.933,0,8.932,3.999,8.932,8.932V715.068z"/>
		<path fill="#FABD5B" d="M166,715.067c0,4.934-3.999,8.933-8.932,8.933H16.932C11.999,724,8,720.001,8,715.067v-0.135
			c0-4.934,3.999-8.933,8.932-8.933h140.137c4.933,0,8.932,3.999,8.932,8.933V715.067z"/>
		<path fill="#6AB6FF" d="M235,715.068c0,4.933-3.999,8.932-8.932,8.932h-41.137c-4.933,0-8.932-3.999-8.932-8.932v-0.137
			c0-4.933,3.999-8.932,8.932-8.932h41.137c4.933,0,8.932,3.999,8.932,8.932V715.068z"/>
	</g>
	<g>
		<path fill="#6AB6FF" d="M242,126.926c0-4.93,3.996-8.926,8.926-8.926h31.148c4.93,0,8.926,3.996,8.926,8.926v0.148
			c0,4.93-3.996,8.926-8.926,8.926h-31.148c-4.93,0-8.926-3.996-8.926-8.926V126.926z"/>
		<path fill="#FF7F95" d="M28,126.793c0-4.856,3.937-8.793,8.793-8.793h74.414c4.856,0,8.793,3.937,8.793,8.793v0.414
			c0,4.856-3.937,8.793-8.793,8.793H36.793c-4.856,0-8.793-3.937-8.793-8.793V126.793z"/>
		<path fill="#96FFD6" d="M130,126.932c0-4.933,3.999-8.932,8.932-8.932h41.137c4.933,0,8.932,3.999,8.932,8.932v0.137
			c0,4.933-3.999,8.932-8.932,8.932h-41.137c-4.933,0-8.932-3.999-8.932-8.932V126.932z"/>
		<path fill="#96FFD6" d="M199,126.933c0-4.934,3.999-8.933,8.932-8.933h15.137c4.933,0,8.932,3.999,8.932,8.933v0.135
			c0,4.934-3.999,8.933-8.932,8.933h-15.137c-4.933,0-8.932-3.999-8.932-8.933V126.933z"/>
	</g>
	<g>
		<path fill="#96FFD6" d="M18,182.932c0-4.933,3.999-8.932,8.932-8.932h140.137c4.933,0,8.932,3.999,8.932,8.932v0.137
			c0,4.933-3.999,8.932-8.932,8.932H26.932c-4.933,0-8.932-3.999-8.932-8.932V182.932z"/>
		<path fill="#6AB6FF" d="M186,182.933c0-4.934,3.999-8.933,8.932-8.933h15.137c4.933,0,8.932,3.999,8.932,8.933v0.135
			c0,4.934-3.999,8.933-8.932,8.933h-15.137c-4.933,0-8.932-3.999-8.932-8.933V182.933z"/>
		<path fill="#3585FF" d="M229,182.933c0-4.934,3.999-8.933,8.932-8.933h41.137c4.933,0,8.932,3.999,8.932,8.933v0.135
			c0,4.934-3.999,8.933-8.932,8.933h-41.137c-4.933,0-8.932-3.999-8.932-8.933V182.933z"/>
	</g>
	<g>
		<path fill="#FF7F95" d="M77,294.932c0-4.933,3.999-8.932,8.933-8.932h140.135c4.934,0,8.933,3.999,8.933,8.932v0.137
			c0,4.933-3.999,8.932-8.933,8.932H85.933c-4.934,0-8.933-3.999-8.933-8.932V294.932z"/>
		<path fill="#FF7F95" d="M245,294.933c0-4.934,3.999-8.933,8.933-8.933h15.135c4.934,0,8.933,3.999,8.933,8.933v0.135
			c0,4.934-3.999,8.933-8.933,8.933h-15.135c-4.934,0-8.933-3.999-8.933-8.933V294.933z"/>
		<path fill="#FABD5B" d="M8,294.933c0-4.934,3.999-8.933,8.932-8.933h41.137c4.933,0,8.932,3.999,8.932,8.933v0.135
			c0,4.934-3.999,8.933-8.932,8.933H16.932C11.999,304,8,300.001,8,295.067V294.933z"/>
	</g>
	<g>
		<path fill="#8E7CFF" d="M18,322.933c0-4.934,3.999-8.933,8.933-8.933h140.135c4.934,0,8.933,3.999,8.933,8.933v0.135
			c0,4.934-3.999,8.933-8.933,8.933H26.933c-4.934,0-8.933-3.999-8.933-8.933V322.933z"/>
		<path fill="#8E7CFF" d="M186,322.925c0-4.929,3.996-8.925,8.925-8.925h31.15c4.929,0,8.925,3.996,8.925,8.925v0.15
			c0,4.929-3.996,8.925-8.925,8.925h-31.15c-4.929,0-8.925-3.996-8.925-8.925V322.925z"/>
		<path fill="#96FFD6" d="M245,322.933c0-4.934,3.999-8.933,8.932-8.933h41.137c4.933,0,8.932,3.999,8.932,8.933v0.135
			c0,4.934-3.999,8.933-8.932,8.933h-41.137c-4.933,0-8.932-3.999-8.932-8.933V322.933z"/>
	</g>
	<g>
		<path fill="#96FFD6" d="M77,266.793c0-4.856,3.937-8.793,8.793-8.793h74.414c4.856,0,8.793,3.937,8.793,8.793v0.414
			c0,4.856-3.937,8.793-8.793,8.793H85.793c-4.856,0-8.793-3.937-8.793-8.793V266.793z"/>
		<path fill="#96FFD6" d="M179,266.925c0-4.929,3.996-8.925,8.926-8.925h31.148c4.93,0,8.926,3.996,8.926,8.925v0.15
			c0,4.929-3.996,8.925-8.926,8.925h-31.148c-4.93,0-8.926-3.996-8.926-8.925V266.925z"/>
		<path fill="#3585FF" d="M18,266.926c0-4.93,3.996-8.926,8.925-8.926h31.15c4.929,0,8.925,3.996,8.925,8.926v0.148
			c0,4.93-3.996,8.926-8.925,8.926h-31.15c-4.929,0-8.925-3.996-8.925-8.926V266.926z"/>
	</g>
	<g>
		<path fill="#FABD5B" d="M278,42.932c0-4.933,3.999-8.932,8.932-8.932h15.137c4.933,0,8.932,3.999,8.932,8.932v0.137
			c0,4.933-3.999,8.932-8.932,8.932h-15.137c-4.933,0-8.932-3.999-8.932-8.932V42.932z"/>
		<path fill="#8E7CFF" d="M176,42.793c0-4.856,3.937-8.793,8.793-8.793h74.414c4.856,0,8.793,3.937,8.793,8.793v0.414
			c0,4.856-3.937,8.793-8.793,8.793h-74.414c-4.856,0-8.793-3.937-8.793-8.793V42.793z"/>
		<path fill="#96FFD6" d="M8,42.933C8,37.999,11.999,34,16.933,34h140.135c4.934,0,8.933,3.999,8.933,8.933v0.135
			c0,4.934-3.999,8.933-8.933,8.933H16.933C11.999,52,8,48.001,8,43.067V42.933z"/>
	</g>
	<g>
		<path fill="#8E7CFF" d="M18,154.932c0-4.933,3.999-8.932,8.932-8.932h41.137c4.933,0,8.932,3.999,8.932,8.932v0.137
			c0,4.933-3.999,8.932-8.932,8.932H26.932c-4.933,0-8.932-3.999-8.932-8.932V154.932z"/>
		<path fill="#FABD5B" d="M87,154.932c0-4.933,3.999-8.932,8.932-8.932h140.137c4.933,0,8.932,3.999,8.932,8.932v0.137
			c0,4.933-3.999,8.932-8.932,8.932H95.932c-4.933,0-8.932-3.999-8.932-8.932V154.932z"/>
		<path fill="#FABD5B" d="M255,154.925c0-4.929,3.996-8.925,8.925-8.925h31.15c4.929,0,8.925,3.996,8.925,8.925v0.15
			c0,4.929-3.996,8.925-8.925,8.925h-31.15c-4.929,0-8.925-3.996-8.925-8.925V154.925z"/>
	</g>
	<g>
		<path fill="#FF7F95" d="M28,350.932c0-4.933,3.999-8.932,8.932-8.932h41.137c4.933,0,8.932,3.999,8.932,8.932v0.137
			c0,4.933-3.999,8.932-8.932,8.932H36.932c-4.933,0-8.932-3.999-8.932-8.932V350.932z"/>
		<path fill="#6AB6FF" d="M97,350.933c0-4.934,3.999-8.933,8.932-8.933h140.137c4.933,0,8.932,3.999,8.932,8.933v0.135
			c0,4.934-3.999,8.933-8.932,8.933H105.932c-4.933,0-8.932-3.999-8.932-8.933V350.933z"/>
		<path fill="#96FFD6" d="M265,350.932c0-4.933,3.999-8.932,8.932-8.932h15.137c4.933,0,8.932,3.999,8.932,8.932v0.137
			c0,4.933-3.999,8.932-8.932,8.932h-15.137c-4.933,0-8.932-3.999-8.932-8.932V350.932z"/>
	</g>
	<g>
		<path fill="#FF7F95" d="M8,210.794c0-4.856,3.938-8.794,8.794-8.794h74.412c4.856,0,8.794,3.938,8.794,8.794v0.412
			c0,4.856-3.938,8.794-8.794,8.794H16.794C11.938,220,8,216.063,8,211.206V210.794z"/>
		<path fill="#3585FF" d="M110,210.932c0-4.933,3.999-8.932,8.932-8.932h140.137c4.933,0,8.932,3.999,8.932,8.932v0.137
			c0,4.933-3.999,8.932-8.932,8.932H118.932c-4.933,0-8.932-3.999-8.932-8.932V210.932z"/>
		<path fill="#8E7CFF" d="M278,210.925c0-4.929,3.996-8.925,8.926-8.925h31.148c4.93,0,8.926,3.996,8.926,8.925v0.15
			c0,4.929-3.996,8.925-8.926,8.925h-31.148c-4.93,0-8.926-3.996-8.926-8.925V210.925z"/>
	</g>
	<g>
		<path fill="#3585FF" d="M110,14.932C110,9.999,113.999,6,118.932,6h15.137C139.001,6,143,9.999,143,14.932v0.137
			c0,4.933-3.999,8.932-8.932,8.932h-15.137c-4.933,0-8.932-3.999-8.932-8.932V14.932z"/>
		<path fill="#FABD5B" d="M153,14.793C153,9.937,156.937,6,161.793,6h74.414C241.063,6,245,9.937,245,14.793v0.414
			c0,4.856-3.937,8.793-8.793,8.793h-74.414c-4.856,0-8.793-3.937-8.793-8.793V14.793z"/>
		<path fill="#FF7F95" d="M255,14.933C255,9.999,258.999,6,263.933,6h41.135C310.001,6,314,9.999,314,14.933v0.135
			c0,4.934-3.999,8.933-8.933,8.933h-41.135c-4.934,0-8.933-3.999-8.933-8.933V14.933z"/>
		<path fill="#6AB6FF" d="M8,14.793C8,9.937,11.937,6,16.793,6h74.414C96.063,6,100,9.937,100,14.793v0.414
			C100,20.063,96.063,24,91.207,24H16.793C11.937,24,8,20.063,8,15.207V14.793z"/>
	</g>
	<g>
		<path fill="#8E7CFF" d="M308,98.933c0-4.934,3.999-8.933,8.932-8.933h15.137c4.933,0,8.932,3.999,8.932,8.933v0.135
			c0,4.934-3.999,8.933-8.932,8.933h-15.137c-4.933,0-8.932-3.999-8.932-8.933V98.933z"/>
		<path fill="#FABD5B" d="M28,98.932C28,93.999,31.999,90,36.932,90h15.137C57.001,90,61,93.999,61,98.932v0.137
			c0,4.933-3.999,8.932-8.932,8.932H36.932C31.999,108,28,104.001,28,99.068V98.932z"/>
		<path fill="#FABD5B" d="M71,98.932C71,93.999,74.999,90,79.932,90h41.137c4.933,0,8.932,3.999,8.932,8.932v0.137
			c0,4.933-3.999,8.932-8.932,8.932H79.932C74.999,108,71,104.001,71,99.068V98.932z"/>
		<path fill="#8E7CFF" d="M140,98.932c0-4.933,3.999-8.932,8.932-8.932h140.137c4.933,0,8.932,3.999,8.932,8.932v0.137
			c0,4.933-3.999,8.932-8.932,8.932H148.932c-4.933,0-8.932-3.999-8.932-8.932V98.932z"/>
	</g>
	<g>
		<path fill="#FF7F95" d="M179,70.932c0-4.933,3.999-8.932,8.932-8.932h140.137c4.933,0,8.932,3.999,8.932,8.932v0.137
			c0,4.933-3.999,8.932-8.932,8.932H187.932c-4.933,0-8.932-3.999-8.932-8.932V70.932z"/>
		<path fill="#3585FF" d="M18,70.793C18,65.937,21.937,62,26.793,62h74.414c4.856,0,8.793,3.937,8.793,8.793v0.414
			c0,4.856-3.937,8.793-8.793,8.793H26.793C21.937,80,18,76.063,18,71.207V70.793z"/>
		<path fill="#FF7F95" d="M120,70.925c0-4.929,3.996-8.925,8.925-8.925h31.15c4.929,0,8.925,3.996,8.925,8.925v0.15
			c0,4.929-3.996,8.925-8.925,8.925h-31.15c-4.929,0-8.925-3.996-8.925-8.925V70.925z"/>
	</g>
	<g>
		<path fill="#8E7CFF" d="M18,238.932c0-4.933,3.999-8.932,8.932-8.932h15.137c4.933,0,8.932,3.999,8.932,8.932v0.137
			c0,4.933-3.999,8.932-8.932,8.932H26.932c-4.933,0-8.932-3.999-8.932-8.932V238.932z"/>
		<path fill="#8E7CFF" d="M61,238.932c0-4.933,3.999-8.932,8.933-8.932h41.135c4.934,0,8.933,3.999,8.933,8.932v0.137
			c0,4.933-3.999,8.932-8.933,8.932H69.933c-4.934,0-8.933-3.999-8.933-8.932V238.932z"/>
		<path fill="#FABD5B" d="M130,238.925c0-4.929,3.996-8.925,8.926-8.925h31.148c4.93,0,8.926,3.996,8.926,8.925v0.15
			c0,4.929-3.996,8.925-8.926,8.925h-31.148c-4.93,0-8.926-3.996-8.926-8.925V238.925z"/>
		<path fill="#FABD5B" d="M189,238.793c0-4.856,3.937-8.793,8.793-8.793h74.414c4.856,0,8.793,3.937,8.793,8.793v0.414
			c0,4.856-3.937,8.793-8.793,8.793h-74.414c-4.856,0-8.793-3.937-8.793-8.793V238.793z"/>
	</g>
	<g>
		<path fill="#FF7F95" d="M281,378.925c0-4.929,3.996-8.925,8.925-8.925h31.15c4.929,0,8.925,3.996,8.925,8.925v0.15
			c0,4.929-3.996,8.925-8.925,8.925h-31.15c-4.929,0-8.925-3.996-8.925-8.925V378.925z"/>
		<path fill="#8E7CFF" d="M179,378.794c0-4.856,3.937-8.794,8.793-8.794h74.414c4.856,0,8.793,3.938,8.793,8.794v0.412
			c0,4.856-3.937,8.794-8.793,8.794h-74.414c-4.856,0-8.793-3.938-8.793-8.794V378.794z"/>
		<path fill="#96FFD6" d="M120,378.926c0-4.93,3.996-8.926,8.925-8.926h31.15c4.929,0,8.925,3.996,8.925,8.926v0.148
			c0,4.93-3.996,8.926-8.925,8.926h-31.15c-4.929,0-8.925-3.996-8.925-8.926V378.926z"/>
		<path fill="#96FFD6" d="M18,378.793c0-4.856,3.937-8.793,8.793-8.793h74.414c4.856,0,8.793,3.937,8.793,8.793v0.414
			c0,4.856-3.937,8.793-8.793,8.793H26.793c-4.856,0-8.793-3.937-8.793-8.793V378.793z"/>
	</g>
	<g>
		<path fill="#FF7F95" d="M18,406.932c0-4.933,3.999-8.932,8.932-8.932h15.137c4.933,0,8.932,3.999,8.932,8.932v0.137
			c0,4.933-3.999,8.932-8.932,8.932H26.932c-4.933,0-8.932-3.999-8.932-8.932V406.932z"/>
		<path fill="#FABD5B" d="M130,406.933c0-4.934,3.999-8.933,8.932-8.933h140.137c4.933,0,8.932,3.999,8.932,8.933v0.135
			c0,4.934-3.999,8.933-8.932,8.933H138.932c-4.933,0-8.932-3.999-8.932-8.933V406.933z"/>
		<path fill="#6AB6FF" d="M61,406.932c0-4.933,3.999-8.932,8.932-8.932h41.137c4.933,0,8.932,3.999,8.932,8.932v0.137
			c0,4.933-3.999,8.932-8.932,8.932H69.932c-4.933,0-8.932-3.999-8.932-8.932V406.932z"/>
	</g>
</g>
</svg>
