<?xml version="1.0" encoding="utf-8"?>
<!-- Generator: Adobe Illustrator 16.0.0, SVG Export Plug-In . SVG Version: 6.00 Build 0)  -->
<!DOCTYPE svg PUBLIC "-//W3C//DTD SVG 1.1//EN" "http://www.w3.org/Graphics/SVG/1.1/DTD/svg11.dtd">
<svg version="1.1" id="Layer_1" xmlns="http://www.w3.org/2000/svg" xmlns:xlink="http://www.w3.org/1999/xlink" x="0px" y="0px"
	 width="861.761px" height="220.915px" viewBox="0 0 861.761 220.915" style="enable-background:new 0 0 861.761 220.915;"
	 xml:space="preserve">
    <defs>
        <filter id="cardGlow" primitiveUnits="userSpaceOnUse">
            <feGaussianBlur stdDeviation="3" in="SourceGraphic"/>
            <feColorMatrix type="matrix" values="0 0 0 0 .12 
                                                0 0 0 0 .23 
                                                0 0 0 0 .75 
                                                0 0 0 1 0"/>
        <feComposite operator="over" in="SourceGraphic"/>
        </filter>     
    </defs>
<g filter="url(#cardGlow)">
	<g>
		<path 
		style="fill:#005EFF;" d="M65.369,180.073c0,13.963-10.852,26.293-24.535,26.293h-0.301
			c-13.685,0-25.164-12.33-25.164-26.293V38.818c0-13.964,11.479-24.452,25.164-24.452h0.301c13.684,0,24.535,10.488,24.535,24.452
			V180.073z"/>
		<path
		style="fill:#6AB6FF;" d="M128.056,24.495l-0.214-0.211c-9.677-9.678-25.646-9.625-35.52,0.248L62.558,54.297L44.471,72.382
			L23.394,93.459c-9.873,9.875-9.917,25.837-0.241,35.516l0.212,0.211c9.675,9.675,25.633,9.624,35.505-0.251l21.077-21.076
			l18.087-18.086l29.764-29.764C137.673,50.136,137.732,34.171,128.056,24.495z"/>
		<path
		 style="fill:#3585FF;" d="M127.799,162.808l-29.764-29.764l-18.085-18.086L58.871,93.881
			c-9.874-9.875-25.836-9.919-35.514-0.243l-0.212,0.213c-9.676,9.676-9.624,25.631,0.249,35.507l21.078,21.077l18.086,18.086
			l29.766,29.764c9.873,9.873,25.835,9.934,35.512,0.258l0.213-0.213C137.725,188.653,137.673,172.681,127.799,162.808z"/>
	</g>
	<g>
		<path
		 style="fill:#8E7CFF;" d="M243.067,87.282l-24.145,34.478l-14.67,20.953l-17.097,24.419
			c-8.009,11.437-5.281,27.165,5.93,35.016l0.246,0.17c11.21,7.854,26.913,5.028,34.923-6.411l17.097-24.416l14.67-20.951
			l24.144-34.481c8.01-11.438,5.297-27.169-5.913-35.019l-0.247-0.171C266.794,73.02,251.077,75.842,243.067,87.282z"/>
		<path
		 style="fill:#4B24ED;" d="M136.765,80.368l-0.247,0.173c-11.21,7.849-13.932,23.585-5.922,35.023l24.144,34.481l14.67,20.952
			l17.097,24.418c8.01,11.438,23.723,14.254,34.933,6.403l0.245-0.17c11.21-7.85,13.93-23.573,5.92-35.012l-17.096-24.417
			l-14.671-20.952l-24.145-34.48C163.684,75.351,147.974,72.519,136.765,80.368z"/>
	</g>
	<g>
		<path
		style="fill:#FF7F95;" d="M427.882,201.857l0.244-0.169c11.147-7.808,13.853-23.453,5.89-34.827l-24.005-34.28
			l-14.586-20.834l-17-24.277c-7.963-11.371-23.587-14.17-34.732-6.367l-0.243,0.171c-11.147,7.803-13.852,23.439-5.889,34.807
			l17,24.277l14.587,20.831l24.005,34.285C401.118,206.847,416.737,209.661,427.882,201.857z"/>
		<path
		 style="fill:#FF7F95;" d="M539.876,202.346l0.243-0.173c11.147-7.805,13.853-23.447,5.891-34.822l-24.009-34.282
			l-14.583-20.832l-17.002-24.279c-7.962-11.369-23.584-14.17-34.73-6.367l-0.245,0.171c-11.145,7.805-13.848,23.437-5.883,34.81
			l16.996,24.274l14.586,20.832l24.007,34.286C513.11,207.335,528.73,210.15,539.876,202.346z"/>
		<path 
		style="fill:#FF2D2D;" d="M322.188,194.983l24.008-34.283l14.587-20.832l16.998-24.276
			c7.962-11.374,5.251-27.009-5.895-34.817l-0.246-0.169c-11.146-7.805-26.759-4.999-34.723,6.375l-16.998,24.279l-14.585,20.83
			l-24.006,34.284c-7.963,11.368-5.267,27.012,5.879,34.813l0.246,0.172C298.598,209.164,314.225,206.355,322.188,194.983z"/>
		<path
		 style="fill:#FF2D2D;" d="M434.183,195.474l24.003-34.285l14.587-20.831l17.002-24.277
			c7.96-11.371,5.247-27.009-5.897-34.814l-0.242-0.169c-11.146-7.808-26.762-4.999-34.726,6.373l-16.999,24.274l-14.585,20.837
			l-24.003,34.28c-7.965,11.373-5.268,27.012,5.878,34.818l0.244,0.171C410.591,209.654,426.219,206.845,434.183,195.474z"/>
	</g>
	<g>
		<path 
		style="fill:#FBB03B;" d="M596.273,141.366h36.419h22.13h25.789c12.078,0,21.758-11.17,21.758-23.016v-0.254
			c0-11.844-9.68-21.73-21.763-21.73h-25.787h-22.122l-37.434,0.08c-12.082,0-22.895,9.811-22.895,21.647v0.257
			C572.369,130.193,584.19,141.366,596.273,141.366z"/>
		<path 
		style="fill:#FB7525;" d="M594.426,96.366h-0.259c-11.84,0-21.799,8.49-21.799,20.572v27.988v2.052v10.046v25.791
			c0,12.079,9.959,21.551,21.799,21.551h0.259c11.839,0,20.942-9.472,20.942-21.551v-25.791v-10.046v-2.052V116.94
			C615.369,104.86,606.265,96.366,594.426,96.366z"/>
		<path
		 style="fill:#FBB03B;" d="M678.967,160.366H642.55h-22.133h-25.789c-12.079,0-22.26,9.368-22.26,21.213v0.257
			c0,11.843,10.183,22.53,22.262,22.53h25.789h22.127l37.178-0.482c12.082,0.002,22.645-10.212,22.645-22.048v-0.257
			C702.369,169.735,691.048,160.366,678.967,160.366z"/>
		<g>
			<path 
			style="fill:#FB7525;" d="M679.98,36.012l-26.306,0.354h-3.2h-14.633c-12.077,0-23.473,9.03-23.473,20.869v0.259
				c0,11.841,11.808,20.872,23.888,20.872h14.218h3.309h11.053h14.729c12.081,0,22.804-9.034,22.804-20.874v-0.255
				C702.369,45.396,692.062,36.012,679.98,36.012z"/>
			<path 
			style="fill:#FBB03B;" d="M658.369,139.551v-36.414v-22.13V55.218c0-12.082,9.447-21.852,21.288-21.852h0.258
				c11.838,0,22.454,9.771,22.454,21.854v25.787v22.128v36.416c0,12.085-10.613,21.815-22.454,21.815h-0.258
				C667.816,161.366,658.369,151.637,658.369,139.551z"/>
		</g>
		<path
		 style="fill:#FB7525;" d="M681.072,93.366h-0.257c-11.841,0-22.446,9.619-22.446,21.698v25.789v2.021v1.646v0.406v36.011
			c0,12.08,10.605,20.429,22.443,20.429h0.263c11.836,0,21.294-8.344,21.294-20.427v-36.013v-0.407v-1.645v-2.021v-25.789
			C702.369,102.985,692.917,93.366,681.072,93.366z"/>
	</g>
	<g>
		<path 
		style="fill:#13FF5C;" d="M836.378,172.076l-32.602-15.202l-19.809-9.239l-23.089-10.761
			c-10.813-5.046-23.648-0.416-28.589,10.183l-0.108,0.23c-4.942,10.603-0.233,23.397,10.579,28.443l23.084,10.766l19.813,9.238
			l32.6,15.196c10.815,5.049,23.654,0.429,28.595-10.172l0.107-0.232C851.903,189.926,847.195,177.12,836.378,172.076z"/>
		<path
		 style="fill:#13FF5C;" d="M847.383,62.477l-0.11-0.231c-4.939-10.599-17.782-15.224-28.595-10.181l-32.601,15.203
			l-19.812,9.239l-23.087,10.766c-10.814,5.043-15.515,17.845-10.573,28.444l0.106,0.234c4.946,10.599,17.772,15.219,28.587,10.179
			l23.089-10.768l19.806-9.236l32.605-15.204C847.612,85.878,852.326,73.08,847.383,62.477z"/>
		<path 
		style="fill:#96FFD6;" d="M751.129,86.366h-0.255c-11.697,0-21.506,8.976-21.506,20.907v17.339v2.027v29.494
			c0,11.932,9.809,22.233,21.5,22.233h0.261c11.692,0,21.239-10.299,21.239-22.231v-29.496v-2.027v-17.339
			C772.369,95.342,762.822,86.366,751.129,86.366z"/>
	</g>
</g>
</svg>
